<svg xmlns="http://www.w3.org/2000/svg" viewBox="0 0 512 512">
  <defs>
    <linearGradient id="bg" x1="62" y1="42" x2="450" y2="474" gradientUnits="userSpaceOnUse">
      <stop stop-color="#ef74b5"/>
      <stop offset="1" stop-color="#b71f77"/>
    </linearGradient>
    <filter id="shadow" x="-20%" y="-20%" width="140%" height="150%">
      <feDropShadow dx="0" dy="18" stdDeviation="16" flood-color="#52113b" flood-opacity=".24"/>
    </filter>
  </defs>
  <rect x="36" y="36" width="440" height="440" rx="112" fill="url(#bg)" filter="url(#shadow)"/>
  <path d="M196 146c48-27 129-10 149 34-40-12-83-8-111 8-28 15-37 42-12 55 12 7 31 7 49 7 60 0 105 31 105 82 0 59-57 99-130 99-63 0-115-28-140-70l75-38c14 23 39 37 66 37 25 0 43-9 43-22 0-11-12-16-31-16-78 0-132-30-132-86 0-38 24-71 69-90Z" fill="#fff"/>
  <path d="m398 74 15 32 32 15-32 15-15 32-15-32-32-15 32-15 15-32Z" fill="#f8b34e"/>
  <circle cx="120" cy="119" r="16" fill="#ffd7ec"/>
</svg>
